<svg width="80" height="80" viewBox="0 0 80 80" fill="none" xmlns="http://www.w3.org/2000/svg">
<g clip-path="url(#clip0_54_189)">
<path d="M64.784 39.1879C64.5916 33.4027 62.5828 29.1238 62.4936 28.9449C62.4842 28.9261 62.4748 28.9073 62.4654 28.8884C59.3912 23.2491 55.3783 19.1962 50.5394 16.8472C46.2777 14.776 41.4575 14.1264 36.6092 14.969C31.6951 15.8211 26.9407 18.1794 23.2141 21.611C19.4077 25.1179 16.9107 29.5427 16.1926 34.0758C14.8222 42.6996 17.2534 48.7578 19.5344 52.3212C21.853 55.9458 24.4578 57.7769 24.899 58.0735C29.1137 61.5427 29.3953 67.0314 29.4047 67.2903V78.8843C29.4047 79.501 29.9022 80.0046 30.5218 80.0046H49.9151C50.5206 80.0046 51.0181 79.5198 51.0275 78.9126C51.0275 78.8419 51.1777 71.8846 51.0275 66.4948C50.9712 64.546 51.7127 62.6301 53.224 60.8084C54.4021 59.3915 55.6224 58.5678 55.6365 58.563C55.6646 58.5442 55.6928 58.5254 55.7162 58.5066C63.5402 52.2883 64.9671 44.5683 64.784 39.1879ZM48.845 68.8437C48.8591 69.964 48.8638 71.0985 48.8638 72.1859H31.6341V68.8437H48.845ZM31.6341 77.764V74.4218H48.8544C48.845 75.7916 48.8309 76.9684 48.8169 77.764H31.6341ZM54.3692 56.7178C53.7872 57.1132 48.6432 60.7802 48.8028 66.5466C48.8028 66.5654 48.8028 66.5842 48.8028 66.6031H31.5919C31.4135 64.8284 30.5405 59.7822 26.2648 56.2988C26.2319 56.2706 26.1944 56.2471 26.1615 56.2235C26.0583 56.1576 15.9955 49.5392 18.3939 34.4242C19.0369 30.39 21.2803 26.4218 24.7207 23.2538C28.1375 20.1094 32.493 17.9487 36.9894 17.1673C46.5922 15.501 55.1577 20.1517 60.4989 29.924C60.6538 30.2677 62.4091 34.2171 62.564 39.3386C62.7705 46.3712 60.0155 52.2176 54.3692 56.7178Z" fill="#E755D3"/>
<path d="M77.8928 60.3095L65.8682 55.1833L66.7365 53.1262L78.7658 58.2524L77.8928 60.3095Z" fill="url(#paint0_linear_54_189)"/>
<path d="M68.2709 31.6471L67.3369 29.6182L79.0659 24.186L79.9999 26.2196L68.2709 31.6471Z" fill="url(#paint1_linear_54_189)"/>
<path d="M53.1724 13.3262L51.1636 12.3518L57.0304 0.141113L59.0392 1.11081L53.1724 13.3262Z" fill="url(#paint2_linear_54_189)"/>
<path d="M27.1045 13.1615L21.3926 0.950868L23.4108 0L29.1227 12.2154L27.1045 13.1615Z" fill="url(#paint3_linear_54_189)"/>
<path d="M12.1795 31.5009L0 26.0735L0.905837 24.0305L13.0854 29.458L12.1795 31.5009Z" fill="url(#paint4_linear_54_189)"/>
<path d="M2.43099 60.592L1.48291 58.5679L13.3621 52.9897L14.3054 55.0139L2.43099 60.592Z" fill="url(#paint5_linear_54_189)"/>
<path d="M77.8928 60.3095L65.8682 55.1833L66.7365 53.1262L78.7658 58.2524L77.8928 60.3095Z" fill="#FDF1D5"/>
<path d="M68.2709 31.6471L67.3369 29.6182L79.0659 24.186L79.9999 26.2196L68.2709 31.6471Z" fill="#FDF1D5"/>
<path d="M53.1724 13.3262L51.1636 12.3518L57.0304 0.141113L59.0392 1.11081L53.1724 13.3262Z" fill="#FDF1D5"/>
<path d="M27.1045 13.1615L21.3926 0.950868L23.4108 0L29.1227 12.2154L27.1045 13.1615Z" fill="#FDF1D5"/>
<path d="M12.1795 31.5009L0 26.0735L0.905837 24.0305L13.0854 29.458L12.1795 31.5009Z" fill="#FDF1D5"/>
<path d="M2.43099 60.592L1.48291 58.5679L13.3621 52.9897L14.3054 55.0139L2.43099 60.592Z" fill="#FDF1D5"/>
<path d="M64.784 39.1879C64.5916 33.4027 62.5828 29.1238 62.4936 28.9449C62.4842 28.9261 62.4748 28.9073 62.4654 28.8884C59.3912 23.2491 55.3783 19.1962 50.5394 16.8472C46.2777 14.776 41.4575 14.1264 36.6092 14.969C31.6951 15.8211 26.9407 18.1794 23.2141 21.611C19.4077 25.1179 16.9107 29.5427 16.1926 34.0758C14.8222 42.6996 17.2534 48.7578 19.5344 52.3212C21.853 55.9458 24.4578 57.7769 24.899 58.0735C29.1137 61.5427 29.3953 67.0314 29.4047 67.2903V78.8843C29.4047 79.501 29.9022 80.0046 30.5218 80.0046H49.9151C50.5206 80.0046 51.0181 79.5198 51.0275 78.9126C51.0275 78.8419 51.1777 71.8846 51.0275 66.4948C50.9712 64.546 51.7127 62.6301 53.224 60.8084C54.4021 59.3915 55.6224 58.5678 55.6365 58.563C55.6646 58.5442 55.6928 58.5254 55.7162 58.5066C63.5402 52.2883 64.9671 44.5683 64.784 39.1879ZM48.845 68.8437C48.8591 69.964 48.8638 71.0985 48.8638 72.1859H31.6341V68.8437H48.845ZM31.6341 77.764V74.4218H48.8544C48.845 75.7916 48.8309 76.9684 48.8169 77.764H31.6341ZM54.3692 56.7178C53.7872 57.1132 48.6432 60.7802 48.8028 66.5466C48.8028 66.5654 48.8028 66.5842 48.8028 66.6031H31.5919C31.4135 64.8284 30.5405 59.7822 26.2648 56.2988C26.2319 56.2706 26.1944 56.2471 26.1615 56.2235C26.0583 56.1576 15.9955 49.5392 18.3939 34.4242C19.0369 30.39 21.2803 26.4218 24.7207 23.2538C28.1375 20.1094 32.493 17.9487 36.9894 17.1673C46.5922 15.501 55.1577 20.1517 60.4989 29.924C60.6538 30.2677 62.4091 34.2171 62.564 39.3386C62.7705 46.3712 60.0155 52.2176 54.3692 56.7178Z" fill="url(#paint6_linear_54_189)"/>
<path d="M64.784 39.1879C64.5916 33.4027 62.5828 29.1238 62.4936 28.9449C62.4842 28.9261 62.4748 28.9073 62.4654 28.8884C59.3912 23.2491 55.3783 19.1962 50.5394 16.8472C46.2777 14.776 41.4575 14.1264 36.6092 14.969C31.6951 15.8211 26.9407 18.1794 23.2141 21.611C19.4077 25.1179 16.9107 29.5427 16.1926 34.0758C14.8222 42.6996 17.2534 48.7578 19.5344 52.3212C21.853 55.9458 24.4578 57.7769 24.899 58.0735C29.1137 61.5427 29.3953 67.0314 29.4047 67.2903V78.8843C29.4047 79.501 29.9022 80.0046 30.5218 80.0046H49.9151C50.5206 80.0046 51.0181 79.5198 51.0275 78.9126C51.0275 78.8419 51.1777 71.8846 51.0275 66.4948C50.9712 64.546 51.7127 62.6301 53.224 60.8084C54.4021 59.3915 55.6224 58.5678 55.6365 58.563C55.6646 58.5442 55.6928 58.5254 55.7162 58.5066C63.5402 52.2883 64.9671 44.5683 64.784 39.1879ZM48.845 68.8437C48.8591 69.964 48.8638 71.0985 48.8638 72.1859H31.6341V68.8437H48.845ZM31.6341 77.764V74.4218H48.8544C48.845 75.7916 48.8309 76.9684 48.8169 77.764H31.6341ZM54.3692 56.7178C53.7872 57.1132 48.6432 60.7802 48.8028 66.5466C48.8028 66.5654 48.8028 66.5842 48.8028 66.6031H31.5919C31.4135 64.8284 30.5405 59.7822 26.2648 56.2988C26.2319 56.2706 26.1944 56.2471 26.1615 56.2235C26.0583 56.1576 15.9955 49.5392 18.3939 34.4242C19.0369 30.39 21.2803 26.4218 24.7207 23.2538C28.1375 20.1094 32.493 17.9487 36.9894 17.1673C46.5922 15.501 55.1577 20.1517 60.4989 29.924C60.6538 30.2677 62.4091 34.2171 62.564 39.3386C62.7705 46.3712 60.0155 52.2176 54.3692 56.7178Z" fill="#FDF1D5"/>
</g>
<path fill-rule="evenodd" clip-rule="evenodd" d="M31.8354 23.5457C34.1352 19.9446 37.4676 20.1094 38.9085 20.7025C39.3309 20.8719 39.6031 21.2815 39.6078 21.7334V55.9646C39.6078 56.473 39.2605 56.9202 38.7677 57.0473C38.702 57.0661 37.9229 57.2591 36.8997 57.2591C35.7686 57.2591 34.3371 57.0238 33.2294 56.0588C32.1921 55.155 31.6477 53.8275 31.6055 52.1094C30.6292 52.1376 29.3385 51.9917 28.2543 51.2291C27.6254 50.7866 26.8651 49.9723 26.5365 48.546C26.5099 48.5475 26.4833 48.5496 26.4567 48.5517C26.4035 48.5559 26.3503 48.5601 26.2972 48.5601C24.3071 48.5601 22.2702 46.9832 21.308 44.5683C20.3271 42.1158 20.5711 38.7784 23.9786 36.4436C23.8049 35.521 23.7158 34.024 24.4667 32.6354C25.0956 31.4727 26.1704 30.6301 27.6489 30.1217C27.8507 28.7378 28.4749 27.6975 28.5172 27.6316C28.5876 27.5233 28.672 27.4245 28.7706 27.3444C29.0851 27.0949 29.9721 26.4218 30.9014 26.0876C31.0516 25.3721 31.3379 24.3224 31.8354 23.5457ZM34.6844 54.3594C35.3978 54.9902 36.5383 55.0655 37.3737 55.0043H37.3831V40.9249C33.5016 40.5107 32.0701 37.8699 31.7463 35.9917C29.7797 35.2997 28.4937 34.1982 27.9164 32.7201C27.8882 32.6531 27.868 32.586 27.8478 32.5189C27.841 32.4965 27.8343 32.4742 27.8272 32.4518C27.1889 32.7625 26.7243 33.172 26.4427 33.6851C25.7517 34.9455 26.2932 36.5183 26.3108 36.5695L26.3112 36.5707C26.4943 37.0838 26.2878 37.6628 25.8137 37.9311C22.3171 39.9223 22.946 42.6525 23.3778 43.7351C24.0396 45.3921 25.5321 46.5548 26.6445 46.2771C29.3057 45.6086 29.1179 42.7466 29.1085 42.6242C29.0616 42.0076 29.5216 41.4709 30.1364 41.4239C30.7512 41.3768 31.2863 41.8381 31.3332 42.4548C31.4459 43.8717 30.9578 46.5124 28.6674 47.8493C28.7894 48.5601 29.071 49.0685 29.531 49.3933C30.4603 50.0523 31.9997 49.8734 32.5113 49.751C32.8633 49.6616 33.2388 49.7557 33.511 49.9958C33.7879 50.2359 33.9287 50.5936 33.8865 50.9561C33.7034 52.5895 33.971 53.7334 34.6844 54.3594ZM33.8912 35.1538C33.8959 35.4692 34.0367 38.2041 37.3737 38.6795H37.3784V22.6136C36.5054 22.5289 34.9988 22.7407 33.7175 24.746C33.281 25.4286 33.0323 26.7466 32.9806 27.1514C32.9055 27.7069 32.4315 28.1258 31.873 28.1258C31.6289 28.1353 30.9155 28.526 30.3335 28.959C30.2021 29.2179 29.9534 29.7687 29.8548 30.4183C29.9017 30.503 29.9346 30.5924 29.9581 30.6866C30.0144 30.9549 29.9721 31.2138 29.8548 31.4398C29.883 31.5998 29.9252 31.7598 29.9862 31.9199C30.3664 32.8849 31.4036 33.6098 33.0745 34.0758C33.5579 34.2123 33.8912 34.6501 33.8912 35.1538ZM56.0911 32.6402C56.842 34.0288 56.7529 35.521 56.5792 36.4484C59.9867 38.7832 60.2307 42.1206 59.2545 44.5731C58.2923 46.9879 56.2554 48.5649 54.2653 48.5649C54.2121 48.5649 54.1589 48.5607 54.1058 48.5565C54.0792 48.5544 54.0526 48.5523 54.026 48.5507C53.6974 49.977 52.9371 50.7914 52.3082 51.2339C51.2193 52.0012 49.9286 52.1471 48.957 52.1141C48.9148 53.837 48.3703 55.1597 47.3331 56.0635C46.2254 57.0285 44.7939 57.2639 43.6628 57.2639C42.6396 57.2639 41.8605 57.0709 41.7948 57.0521C41.302 56.925 40.9547 56.4825 40.9547 55.9694V21.7428C40.9547 21.2862 41.2316 20.8814 41.6493 20.7073C43.0902 20.1141 46.4226 19.9494 48.7224 23.5504C49.2199 24.3271 49.5062 25.3769 49.6564 26.0924C50.581 26.4219 51.4727 27.0997 51.7872 27.3492C51.8904 27.4292 51.9749 27.5281 52.0406 27.6363C52.042 27.6387 52.0441 27.6424 52.047 27.6473C52.1232 27.7781 52.7144 28.7927 52.9089 30.1265C54.3874 30.6349 55.4622 31.4728 56.0911 32.6402ZM46.845 24.7508C45.559 22.7361 44.0477 22.529 43.1841 22.6137V38.6796C46.5164 38.2042 46.6619 35.4692 46.6666 35.1491C46.6666 34.6455 46.9999 34.2171 47.4833 34.0806C49.1588 33.6099 50.2008 32.885 50.5763 31.9153C50.6373 31.7599 50.6795 31.6046 50.7077 31.4445C50.5904 31.2186 50.5434 30.955 50.6044 30.6914C50.6279 30.5972 50.6655 30.5078 50.7077 30.4231C50.6091 29.7782 50.3604 29.2227 50.229 28.9638C49.647 28.5307 48.9336 28.14 48.6848 28.1306C48.1263 28.1306 47.6522 27.7117 47.5818 27.1562C47.5208 26.7184 47.2768 25.4333 46.845 24.7508ZM53.9133 46.2818C55.0257 46.5596 56.5182 45.3969 57.18 43.7399C57.6118 42.6572 58.2407 39.927 54.7441 37.9453C54.27 37.6722 54.0588 37.0933 54.2513 36.5802C54.2559 36.5707 54.8192 34.975 54.1198 33.6993C53.8382 33.1862 53.3736 32.7767 52.7353 32.466C52.7071 32.5554 52.6789 32.6449 52.6461 32.7343C52.0688 34.2124 50.7828 35.3139 48.8162 36.0059C48.4924 37.8841 47.0609 40.5296 43.1794 40.9391V55.0138C44.0148 55.075 45.1553 54.995 45.8687 54.3689C46.5774 53.7429 46.8497 52.599 46.6666 50.9656C46.6291 50.6031 46.7652 50.2407 47.0421 50.0006C47.319 49.7558 47.6945 49.6664 48.0465 49.7558C48.5581 49.8782 50.0975 50.0571 51.0268 49.3981C51.4868 49.0732 51.7684 48.5649 51.8904 47.8541C49.6047 46.5172 49.1166 43.8764 49.2246 42.4595C49.2715 41.8429 49.8065 41.3769 50.4214 41.4286C51.0362 41.4757 51.4915 42.0123 51.4493 42.6243C51.4258 42.935 51.3319 45.6322 53.9133 46.2818Z" fill="#E755D3"/>
<path fill-rule="evenodd" clip-rule="evenodd" d="M31.8354 23.5457C34.1352 19.9446 37.4676 20.1094 38.9085 20.7025C39.3309 20.8719 39.6031 21.2815 39.6078 21.7334V55.9646C39.6078 56.473 39.2605 56.9202 38.7677 57.0473C38.702 57.0661 37.9229 57.2591 36.8997 57.2591C35.7686 57.2591 34.3371 57.0238 33.2294 56.0588C32.1921 55.155 31.6477 53.8275 31.6055 52.1094C30.6292 52.1376 29.3385 51.9917 28.2543 51.2291C27.6254 50.7866 26.8651 49.9723 26.5365 48.546C26.5099 48.5475 26.4833 48.5496 26.4567 48.5517C26.4035 48.5559 26.3503 48.5601 26.2972 48.5601C24.3071 48.5601 22.2702 46.9832 21.308 44.5683C20.3271 42.1158 20.5711 38.7784 23.9786 36.4436C23.8049 35.521 23.7158 34.024 24.4667 32.6354C25.0956 31.4727 26.1704 30.6301 27.6489 30.1217C27.8507 28.7378 28.4749 27.6975 28.5172 27.6316C28.5876 27.5233 28.672 27.4245 28.7706 27.3444C29.0851 27.0949 29.9721 26.4218 30.9014 26.0876C31.0516 25.3721 31.3379 24.3224 31.8354 23.5457ZM34.6844 54.3594C35.3978 54.9902 36.5383 55.0655 37.3737 55.0043H37.3831V40.9249C33.5016 40.5107 32.0701 37.8699 31.7463 35.9917C29.7797 35.2997 28.4937 34.1982 27.9164 32.7201C27.8882 32.6531 27.868 32.586 27.8478 32.5189C27.841 32.4965 27.8343 32.4742 27.8272 32.4518C27.1889 32.7625 26.7243 33.172 26.4427 33.6851C25.7517 34.9455 26.2932 36.5183 26.3108 36.5695L26.3112 36.5707C26.4943 37.0838 26.2878 37.6628 25.8137 37.9311C22.3171 39.9223 22.946 42.6525 23.3778 43.7351C24.0396 45.3921 25.5321 46.5548 26.6445 46.2771C29.3057 45.6086 29.1179 42.7466 29.1085 42.6242C29.0616 42.0076 29.5216 41.4709 30.1364 41.4239C30.7512 41.3768 31.2863 41.8381 31.3332 42.4548C31.4459 43.8717 30.9578 46.5124 28.6674 47.8493C28.7894 48.5601 29.071 49.0685 29.531 49.3933C30.4603 50.0523 31.9997 49.8734 32.5113 49.751C32.8633 49.6616 33.2388 49.7557 33.511 49.9958C33.7879 50.2359 33.9287 50.5936 33.8865 50.9561C33.7034 52.5895 33.971 53.7334 34.6844 54.3594ZM33.8912 35.1538C33.8959 35.4692 34.0367 38.2041 37.3737 38.6795H37.3784V22.6136C36.5054 22.5289 34.9988 22.7407 33.7175 24.746C33.281 25.4286 33.0323 26.7466 32.9806 27.1514C32.9055 27.7069 32.4315 28.1258 31.873 28.1258C31.6289 28.1353 30.9155 28.526 30.3335 28.959C30.2021 29.2179 29.9534 29.7687 29.8548 30.4183C29.9017 30.503 29.9346 30.5924 29.9581 30.6866C30.0144 30.9549 29.9721 31.2138 29.8548 31.4398C29.883 31.5998 29.9252 31.7598 29.9862 31.9199C30.3664 32.8849 31.4036 33.6098 33.0745 34.0758C33.5579 34.2123 33.8912 34.6501 33.8912 35.1538ZM56.0911 32.6402C56.842 34.0288 56.7529 35.521 56.5792 36.4484C59.9867 38.7832 60.2307 42.1206 59.2545 44.5731C58.2923 46.9879 56.2554 48.5649 54.2653 48.5649C54.2121 48.5649 54.1589 48.5607 54.1058 48.5565C54.0792 48.5544 54.0526 48.5523 54.026 48.5507C53.6974 49.977 52.9371 50.7914 52.3082 51.2339C51.2193 52.0012 49.9286 52.1471 48.957 52.1141C48.9148 53.837 48.3703 55.1597 47.3331 56.0635C46.2254 57.0285 44.7939 57.2639 43.6628 57.2639C42.6396 57.2639 41.8605 57.0709 41.7948 57.0521C41.302 56.925 40.9547 56.4825 40.9547 55.9694V21.7428C40.9547 21.2862 41.2316 20.8814 41.6493 20.7073C43.0902 20.1141 46.4226 19.9494 48.7224 23.5504C49.2199 24.3271 49.5062 25.3769 49.6564 26.0924C50.581 26.4219 51.4727 27.0997 51.7872 27.3492C51.8904 27.4292 51.9749 27.5281 52.0406 27.6363C52.042 27.6387 52.0441 27.6424 52.047 27.6473C52.1232 27.7781 52.7144 28.7927 52.9089 30.1265C54.3874 30.6349 55.4622 31.4728 56.0911 32.6402ZM46.845 24.7508C45.559 22.7361 44.0477 22.529 43.1841 22.6137V38.6796C46.5164 38.2042 46.6619 35.4692 46.6666 35.1491C46.6666 34.6455 46.9999 34.2171 47.4833 34.0806C49.1588 33.6099 50.2008 32.885 50.5763 31.9153C50.6373 31.7599 50.6795 31.6046 50.7077 31.4445C50.5904 31.2186 50.5434 30.955 50.6044 30.6914C50.6279 30.5972 50.6655 30.5078 50.7077 30.4231C50.6091 29.7782 50.3604 29.2227 50.229 28.9638C49.647 28.5307 48.9336 28.14 48.6848 28.1306C48.1263 28.1306 47.6522 27.7117 47.5818 27.1562C47.5208 26.7184 47.2768 25.4333 46.845 24.7508ZM53.9133 46.2818C55.0257 46.5596 56.5182 45.3969 57.18 43.7399C57.6118 42.6572 58.2407 39.927 54.7441 37.9453C54.27 37.6722 54.0588 37.0933 54.2513 36.5802C54.2559 36.5707 54.8192 34.975 54.1198 33.6993C53.8382 33.1862 53.3736 32.7767 52.7353 32.466C52.7071 32.5554 52.6789 32.6449 52.6461 32.7343C52.0688 34.2124 50.7828 35.3139 48.8162 36.0059C48.4924 37.8841 47.0609 40.5296 43.1794 40.9391V55.0138C44.0148 55.075 45.1553 54.995 45.8687 54.3689C46.5774 53.7429 46.8497 52.599 46.6666 50.9656C46.6291 50.6031 46.7652 50.2407 47.0421 50.0006C47.319 49.7558 47.6945 49.6664 48.0465 49.7558C48.5581 49.8782 50.0975 50.0571 51.0268 49.3981C51.4868 49.0732 51.7684 48.5649 51.8904 47.8541C49.6047 46.5172 49.1166 43.8764 49.2246 42.4595C49.2715 41.8429 49.8065 41.3769 50.4214 41.4286C51.0362 41.4757 51.4915 42.0123 51.4493 42.6243C51.4258 42.935 51.3319 45.6322 53.9133 46.2818Z" fill="url(#paint7_linear_54_189)"/>
<defs>
<linearGradient id="paint0_linear_54_189" x1="65.866" y1="56.7168" x2="78.7652" y2="56.7168" gradientUnits="userSpaceOnUse">
<stop stop-color="#FFBE00"/>
<stop offset="0.3674" stop-color="#FF7B00"/>
<stop offset="0.496" stop-color="#FF7A03"/>
<stop offset="0.5812" stop-color="#FF780C"/>
<stop offset="0.6538" stop-color="#FF731B"/>
<stop offset="0.7193" stop-color="#FF6D30"/>
<stop offset="0.7802" stop-color="#FF664B"/>
<stop offset="0.8375" stop-color="#FF5C6D"/>
<stop offset="0.8921" stop-color="#FF5196"/>
<stop offset="0.9445" stop-color="#FF44C4"/>
<stop offset="0.9935" stop-color="#FF35F8"/>
<stop offset="1" stop-color="#FF33FF"/>
</linearGradient>
<linearGradient id="paint1_linear_54_189" x1="67.3379" y1="27.9174" x2="79.9987" y2="27.9174" gradientUnits="userSpaceOnUse">
<stop stop-color="#FFBE00"/>
<stop offset="0.3674" stop-color="#FF7B00"/>
<stop offset="0.496" stop-color="#FF7A03"/>
<stop offset="0.5812" stop-color="#FF780C"/>
<stop offset="0.6538" stop-color="#FF731B"/>
<stop offset="0.7193" stop-color="#FF6D30"/>
<stop offset="0.7802" stop-color="#FF664B"/>
<stop offset="0.8375" stop-color="#FF5C6D"/>
<stop offset="0.8921" stop-color="#FF5196"/>
<stop offset="0.9445" stop-color="#FF44C4"/>
<stop offset="0.9935" stop-color="#FF35F8"/>
<stop offset="1" stop-color="#FF33FF"/>
</linearGradient>
<linearGradient id="paint2_linear_54_189" x1="51.1656" y1="6.73223" x2="59.0377" y2="6.73223" gradientUnits="userSpaceOnUse">
<stop stop-color="#FFBE00"/>
<stop offset="0.3674" stop-color="#FF7B00"/>
<stop offset="0.496" stop-color="#FF7A03"/>
<stop offset="0.5812" stop-color="#FF780C"/>
<stop offset="0.6538" stop-color="#FF731B"/>
<stop offset="0.7193" stop-color="#FF6D30"/>
<stop offset="0.7802" stop-color="#FF664B"/>
<stop offset="0.8375" stop-color="#FF5C6D"/>
<stop offset="0.8921" stop-color="#FF5196"/>
<stop offset="0.9445" stop-color="#FF44C4"/>
<stop offset="0.9935" stop-color="#FF35F8"/>
<stop offset="1" stop-color="#FF33FF"/>
</linearGradient>
<linearGradient id="paint3_linear_54_189" x1="21.393" y1="6.58156" x2="29.1244" y2="6.58156" gradientUnits="userSpaceOnUse">
<stop stop-color="#FFBE00"/>
<stop offset="0.3674" stop-color="#FF7B00"/>
<stop offset="0.496" stop-color="#FF7A03"/>
<stop offset="0.5812" stop-color="#FF780C"/>
<stop offset="0.6538" stop-color="#FF731B"/>
<stop offset="0.7193" stop-color="#FF6D30"/>
<stop offset="0.7802" stop-color="#FF664B"/>
<stop offset="0.8375" stop-color="#FF5C6D"/>
<stop offset="0.8921" stop-color="#FF5196"/>
<stop offset="0.9445" stop-color="#FF44C4"/>
<stop offset="0.9935" stop-color="#FF35F8"/>
<stop offset="1" stop-color="#FF33FF"/>
</linearGradient>
<linearGradient id="paint4_linear_54_189" x1="0" y1="27.7663" x2="13.083" y2="27.7663" gradientUnits="userSpaceOnUse">
<stop stop-color="#FFBE00"/>
<stop offset="0.3674" stop-color="#FF7B00"/>
<stop offset="0.496" stop-color="#FF7A03"/>
<stop offset="0.5812" stop-color="#FF780C"/>
<stop offset="0.6538" stop-color="#FF731B"/>
<stop offset="0.7193" stop-color="#FF6D30"/>
<stop offset="0.7802" stop-color="#FF664B"/>
<stop offset="0.8375" stop-color="#FF5C6D"/>
<stop offset="0.8921" stop-color="#FF5196"/>
<stop offset="0.9445" stop-color="#FF44C4"/>
<stop offset="0.9935" stop-color="#FF35F8"/>
<stop offset="1" stop-color="#FF33FF"/>
</linearGradient>
<linearGradient id="paint5_linear_54_189" x1="1.48314" y1="56.7922" x2="14.3056" y2="56.7922" gradientUnits="userSpaceOnUse">
<stop stop-color="#FFBE00"/>
<stop offset="0.3674" stop-color="#FF7B00"/>
<stop offset="0.496" stop-color="#FF7A03"/>
<stop offset="0.5812" stop-color="#FF780C"/>
<stop offset="0.6538" stop-color="#FF731B"/>
<stop offset="0.7193" stop-color="#FF6D30"/>
<stop offset="0.7802" stop-color="#FF664B"/>
<stop offset="0.8375" stop-color="#FF5C6D"/>
<stop offset="0.8921" stop-color="#FF5196"/>
<stop offset="0.9445" stop-color="#FF44C4"/>
<stop offset="0.9935" stop-color="#FF35F8"/>
<stop offset="1" stop-color="#FF33FF"/>
</linearGradient>
<linearGradient id="paint6_linear_54_189" x1="15.793" y1="47.3054" x2="64.7996" y2="47.3054" gradientUnits="userSpaceOnUse">
<stop stop-color="#F5B782"/>
<stop offset="0.2747" stop-color="#F5B584"/>
<stop offset="0.4311" stop-color="#F3AC8B"/>
<stop offset="0.5577" stop-color="#F19E96"/>
<stop offset="0.6684" stop-color="#EF8BA7"/>
<stop offset="0.7678" stop-color="#EB71BC"/>
<stop offset="0.8526" stop-color="#E755D3"/>
</linearGradient>
<linearGradient id="paint7_linear_54_189" x1="12.9472" y1="20.3738" x2="61.3298" y2="22.8857" gradientUnits="userSpaceOnUse">
<stop offset="0.120248" stop-color="#FDF1D5"/>
<stop offset="0.465654" stop-color="#EE6B68"/>
<stop offset="1" stop-color="#FF33FF" stop-opacity="0"/>
</linearGradient>
<clipPath id="clip0_54_189">
<rect width="80" height="80" fill="white"/>
</clipPath>
</defs>
</svg>
