<svg width="77" height="77" viewBox="0 0 77 77" fill="none" xmlns="http://www.w3.org/2000/svg">
<circle cx="38.5" cy="38.5" r="37.5" stroke="#FF33FF" stroke-width="2"/>
<circle cx="38.5" cy="38.5" r="37.5" stroke="url(#paint0_linear_54_14)" stroke-width="2"/>
<path d="M38.5 24.1498C43.1745 24.1498 43.7274 24.1666 45.5704 24.2504C47.2793 24.3258 48.2008 24.6106 48.8207 24.8535C49.6417 25.1719 50.2197 25.5488 50.8313 26.1604C51.4428 26.7719 51.8198 27.3583 52.1381 28.1709C52.381 28.7908 52.6659 29.7123 52.7413 31.4213C52.825 33.2642 52.8418 33.8171 52.8418 38.4916C52.8418 43.1661 52.8334 43.7274 52.7496 45.5704C52.6742 47.2793 52.3894 48.2008 52.1465 48.8207C51.8281 49.6417 51.4512 50.2197 50.8396 50.8313C50.2281 51.4428 49.6417 51.8198 48.8291 52.1381C48.2092 52.381 47.2877 52.6659 45.5787 52.7413C43.7358 52.825 43.1829 52.8418 38.5084 52.8418C33.8339 52.8418 33.2726 52.8334 31.4296 52.7496C29.7207 52.6742 28.7992 52.3894 28.1793 52.1465C27.3583 51.8281 26.7803 51.4512 26.1687 50.8396C25.5572 50.2281 25.1802 49.6417 24.8619 48.8291C24.619 48.2092 24.3341 47.2877 24.2587 45.5787C24.175 43.7358 24.1582 43.1829 24.1582 38.5084C24.1582 33.8339 24.175 33.281 24.2587 31.438C24.3341 29.7291 24.619 28.8076 24.8619 28.1876C25.1719 27.3667 25.5572 26.7803 26.1687 26.1687C26.7803 25.5572 27.3667 25.1802 28.1793 24.8619C28.7992 24.619 29.7207 24.3341 31.4296 24.2587C33.2726 24.175 33.8255 24.1498 38.5 24.1498ZM38.5 21C33.7501 21 33.1553 21.0168 31.2872 21.1089C29.4275 21.1927 28.1541 21.4943 27.04 21.9215C25.8923 22.3655 24.9122 22.9686 23.9404 23.9404C22.9603 24.9122 22.3655 25.8839 21.9215 27.04C21.4859 28.1541 21.1927 29.4275 21.1089 31.2872C21.0168 33.1553 21 33.7501 21 38.5C21 43.2499 21.0168 43.8447 21.1089 45.7128C21.1927 47.5725 21.4859 48.8459 21.9215 49.96C22.3655 51.1077 22.9686 52.0878 23.9404 53.0596C24.9122 54.0314 25.8923 54.6345 27.04 55.0785C28.1541 55.5141 29.4275 55.8073 31.2872 55.8911C33.1553 55.9749 33.7501 56 38.5 56C43.2499 56 43.8447 55.9832 45.7128 55.8911C47.5725 55.8073 48.8459 55.5057 49.96 55.0785C51.1077 54.6345 52.0878 54.0314 53.0596 53.0596C54.0314 52.0878 54.6345 51.1077 55.0785 49.96C55.5141 48.8459 55.8073 47.5725 55.8911 45.7128C55.9749 43.8447 56 43.2499 56 38.5C56 33.7501 55.9832 33.1553 55.8911 31.2872C55.8073 29.4275 55.5141 28.1541 55.0785 27.04C54.6345 25.8923 54.0314 24.9122 53.0596 23.9404C52.0878 22.9686 51.1077 22.3655 49.96 21.9215C48.8459 21.4859 47.5725 21.1927 45.7128 21.1089C43.853 21.0168 43.2499 21 38.5 21Z" fill="#FFE9D2"/>
<path d="M38.5 29.5112C33.5407 29.5112 29.5112 33.5323 29.5112 38.5C29.5112 43.4593 33.5323 47.4887 38.5 47.4887C43.4593 47.4887 47.4887 43.4677 47.4887 38.5C47.4887 33.5407 43.4677 29.5112 38.5 29.5112ZM38.5 44.3305C35.2748 44.3305 32.6694 41.7168 32.6694 38.5C32.6694 35.2748 35.2831 32.6694 38.5 32.6694C41.7168 32.6694 44.3305 35.2831 44.3305 38.5C44.3305 41.7252 41.7252 44.3305 38.5 44.3305Z" fill="#FFE9D2"/>
<path d="M49.9432 29.1593C49.9432 30.3154 49.0049 31.262 47.8405 31.262C46.6844 31.262 45.7378 30.3238 45.7378 29.1593C45.7378 28.0033 46.676 27.0566 47.8405 27.0566C49.0049 27.0566 49.9432 28.0033 49.9432 29.1593Z" fill="#FFE9D2"/>
<defs>
<linearGradient id="paint0_linear_54_14" x1="-14.1339" y1="1.00001" x2="109.206" y2="5.40873" gradientUnits="userSpaceOnUse">
<stop offset="0.120248" stop-color="#FDF1D5"/>
<stop offset="0.465654" stop-color="#EE6B68"/>
<stop offset="1" stop-color="#FF33FF" stop-opacity="0"/>
</linearGradient>
</defs>
</svg>
