<svg width="56" height="80" viewBox="0 0 56 80" fill="none" xmlns="http://www.w3.org/2000/svg">
<g clip-path="url(#clip0_54_223)">
<path d="M45.9189 31.0743C45.7966 31.0743 45.7058 31.0703 45.6545 31.0703H8.05366C8.00237 31.0703 7.95502 31.0664 7.90766 31.0624C1.97692 30.3048 0.142054 25.1987 0 22.6023C0 22.5826 0 22.5589 0 22.5392C0 19.4377 0.994377 16.9754 2.95156 15.2234C5.87551 12.6073 10.1253 12.3744 12.047 12.4178C14.012 5.8597 18.1908 2.82922 21.4225 1.4363C24.9186 -0.0710502 28.0083 -0.00791519 28.3792 0.00392263C35.4622 0.0118145 39.783 3.67365 42.1584 6.74753C43.9657 9.08353 44.9364 11.4077 45.3625 12.6151C46.933 12.7256 50.2239 13.2386 52.5481 15.5036C54.2054 17.1175 55.0459 19.2877 55.0459 21.9473C55.0459 24.8081 54.1857 27.0691 52.4889 28.6672C50.1332 30.8888 46.9172 31.0743 45.9189 31.0743ZM8.13258 28.7304H45.6861C45.7098 28.7304 45.7295 28.7304 45.7532 28.7304C45.7808 28.7304 48.8823 28.8685 50.8947 26.9547C52.0943 25.8143 52.7059 24.1294 52.7059 21.9473C52.7059 19.9467 52.1061 18.3486 50.9224 17.1885C48.5548 14.8683 44.5655 14.9235 44.522 14.9235C43.9775 14.9314 43.504 14.5763 43.3659 14.0515C43.358 14.0238 42.5412 11.0368 40.2565 8.11283C37.2655 4.28527 33.2603 2.34387 28.3516 2.34387C28.3319 2.34387 28.3121 2.34387 28.2924 2.34387C28.2687 2.34387 25.4197 2.23338 22.259 3.62235C18.0882 5.45327 15.33 8.9178 14.0515 13.9291C13.9094 14.4934 13.3688 14.8683 12.7888 14.8012C12.7375 14.7972 7.51702 14.2685 4.49837 16.9754C3.06994 18.2578 2.34389 20.1164 2.336 22.5037C2.37151 22.9575 2.87659 28.0161 8.13258 28.7304Z" fill="#E755D3"/>
<path d="M47.2448 43.0698H9.2217C7.13429 43.0698 5.43359 44.7705 5.43359 46.8579V70.5651C5.43359 72.6525 7.13429 74.3532 9.2217 74.3532H22.7642V77.6126H15.6496C14.9907 77.6126 14.454 78.1492 14.454 78.8082C14.454 79.4672 14.9907 80.0038 15.6496 80.0038H41.5271C42.1861 80.0038 42.7227 79.4672 42.7227 78.8082C42.7227 78.1492 42.1861 77.6126 41.5271 77.6126H34.0574V74.3532H47.2448C49.3322 74.3532 51.0329 72.6525 51.0329 70.5651V46.8579C51.0329 44.7666 49.3361 43.0698 47.2448 43.0698ZM9.2217 45.4571H47.2448C48.0142 45.4571 48.6416 46.0845 48.6416 46.854V65.8576H7.82483V46.854C7.82483 46.0845 8.45224 45.4571 9.2217 45.4571ZM31.6662 77.6086H25.1554V74.3493H31.6662V77.6086ZM47.2448 71.962H9.2217C8.45224 71.962 7.82483 71.3346 7.82483 70.5651V68.2489H48.6416V70.5651C48.6416 71.3346 48.0142 71.962 47.2448 71.962Z" fill="#E755D3"/>
<path d="M45.9189 31.0743C45.7966 31.0743 45.7058 31.0703 45.6545 31.0703H8.05366C8.00237 31.0703 7.95502 31.0664 7.90766 31.0624C1.97692 30.3048 0.142054 25.1987 0 22.6023C0 22.5826 0 22.5589 0 22.5392C0 19.4377 0.994377 16.9754 2.95156 15.2234C5.87551 12.6073 10.1253 12.3744 12.047 12.4178C14.012 5.8597 18.1908 2.82922 21.4225 1.4363C24.9186 -0.0710502 28.0083 -0.00791519 28.3792 0.00392263C35.4622 0.0118145 39.783 3.67365 42.1584 6.74753C43.9657 9.08353 44.9364 11.4077 45.3625 12.6151C46.933 12.7256 50.2239 13.2386 52.5481 15.5036C54.2054 17.1175 55.0459 19.2877 55.0459 21.9473C55.0459 24.8081 54.1857 27.0691 52.4889 28.6672C50.1332 30.8888 46.9172 31.0743 45.9189 31.0743ZM8.13258 28.7304H45.6861C45.7098 28.7304 45.7295 28.7304 45.7532 28.7304C45.7808 28.7304 48.8823 28.8685 50.8947 26.9547C52.0943 25.8143 52.7059 24.1294 52.7059 21.9473C52.7059 19.9467 52.1061 18.3486 50.9224 17.1885C48.5548 14.8683 44.5655 14.9235 44.522 14.9235C43.9775 14.9314 43.504 14.5763 43.3659 14.0515C43.358 14.0238 42.5412 11.0368 40.2565 8.11283C37.2655 4.28527 33.2603 2.34387 28.3516 2.34387C28.3319 2.34387 28.3121 2.34387 28.2924 2.34387C28.2687 2.34387 25.4197 2.23338 22.259 3.62235C18.0882 5.45327 15.33 8.9178 14.0515 13.9291C13.9094 14.4934 13.3688 14.8683 12.7888 14.8012C12.7375 14.7972 7.51702 14.2685 4.49837 16.9754C3.06994 18.2578 2.34389 20.1164 2.336 22.5037C2.37151 22.9575 2.87659 28.0161 8.13258 28.7304Z" fill="#FDF1D5"/>
<path d="M47.2448 43.0698H9.2217C7.13429 43.0698 5.43359 44.7705 5.43359 46.8579V70.5651C5.43359 72.6525 7.13429 74.3532 9.2217 74.3532H22.7642V77.6126H15.6496C14.9907 77.6126 14.454 78.1492 14.454 78.8082C14.454 79.4672 14.9907 80.0038 15.6496 80.0038H41.5271C42.1861 80.0038 42.7227 79.4672 42.7227 78.8082C42.7227 78.1492 42.1861 77.6126 41.5271 77.6126H34.0574V74.3532H47.2448C49.3322 74.3532 51.0329 72.6525 51.0329 70.5651V46.8579C51.0329 44.7666 49.3361 43.0698 47.2448 43.0698ZM9.2217 45.4571H47.2448C48.0142 45.4571 48.6416 46.0845 48.6416 46.854V65.8576H7.82483V46.854C7.82483 46.0845 8.45224 45.4571 9.2217 45.4571ZM31.6662 77.6086H25.1554V74.3493H31.6662V77.6086ZM47.2448 71.962H9.2217C8.45224 71.962 7.82483 71.3346 7.82483 70.5651V68.2489H48.6416V70.5651C48.6416 71.3346 48.0142 71.962 47.2448 71.962Z" fill="#FDF1D5"/>
<path d="M28.332 16.3953C27.235 16.3953 26.3433 17.287 26.3433 18.384C26.3433 19.481 27.235 20.3728 28.332 20.3728C29.429 20.3728 30.3208 19.481 30.3208 18.384C30.3208 17.287 29.4329 16.3953 28.332 16.3953ZM28.332 19.2955C27.8309 19.2955 27.4205 18.8891 27.4205 18.388C27.4205 17.8868 27.8269 17.4804 28.332 17.4804C28.8371 17.4804 29.2396 17.8868 29.2396 18.388C29.2396 18.8891 28.8371 19.2955 28.332 19.2955Z" fill="url(#paint0_linear_54_223)"/>
<path d="M28.332 57.7646C29.429 57.7646 30.3208 56.8728 30.3208 55.7759C30.3208 54.6789 29.429 53.7871 28.332 53.7871C27.235 53.7871 26.3433 54.6789 26.3433 55.7759C26.3433 56.8768 27.235 57.7646 28.332 57.7646ZM28.332 54.8683C28.8331 54.8683 29.2396 55.2747 29.2396 55.7798C29.2396 56.2809 28.8331 56.6874 28.332 56.6874C27.8309 56.6874 27.4205 56.2809 27.4205 55.7798C27.4244 55.2747 27.8309 54.8683 28.332 54.8683Z" fill="url(#paint1_linear_54_223)"/>
<path d="M35.3556 43.6697H32.625V46.4003H35.3556V43.6697Z" fill="url(#paint2_linear_54_223)"/>
<path d="M35.3556 38.2913H32.625V41.0219H35.3556V38.2913Z" fill="url(#paint3_linear_54_223)"/>
<path d="M35.3556 32.9485H32.625V35.6791H35.3556V32.9485Z" fill="url(#paint4_linear_54_223)"/>
<path d="M35.3556 27.6018H32.625V30.3324H35.3556V27.6018Z" fill="url(#paint5_linear_54_223)"/>
<path d="M34.0455 22.3536C34.8307 21.2251 35.2964 19.8598 35.2964 18.384C35.2964 14.5446 32.1712 11.4194 28.3318 11.4194C24.4924 11.4194 21.3672 14.5446 21.3672 18.384V55.7758C21.3672 56.4939 21.4777 57.1923 21.6789 57.8434C22.5668 60.6766 25.2145 62.7403 28.3318 62.7403C31.453 62.7403 34.0968 60.6766 34.9807 57.8434C35.1859 57.1884 35.2924 56.4939 35.2924 55.7758C35.2924 54.2724 34.8071 52.8794 33.9942 51.7391H35.3516V49.0085H32.621V50.3027C31.4372 49.3715 29.9496 48.8112 28.3278 48.8112C26.5482 48.8112 24.9264 49.4859 23.6953 50.5908V23.569C24.9264 24.6699 26.5482 25.3486 28.3278 25.3486C29.9457 25.3486 31.4372 24.7883 32.621 23.857V25.0842H35.3516V22.3536H34.0455V22.3536ZM28.3318 51.1432C30.8848 51.1432 32.9643 53.2227 32.9643 55.7758C32.9643 58.3288 30.8848 60.4083 28.3318 60.4083C25.7787 60.4083 23.6992 58.3288 23.6992 55.7758C23.7032 53.2227 25.7787 51.1432 28.3318 51.1432ZM28.3318 23.0166C25.7787 23.0166 23.6992 20.937 23.6992 18.384C23.6992 15.831 25.7787 13.7515 28.3318 13.7515C30.8848 13.7515 32.9643 15.831 32.9643 18.384C32.9643 20.941 30.8887 23.0166 28.3318 23.0166Z" fill="url(#paint6_linear_54_223)"/>
<path d="M28.332 16.3953C27.235 16.3953 26.3433 17.287 26.3433 18.384C26.3433 19.481 27.235 20.3728 28.332 20.3728C29.429 20.3728 30.3208 19.481 30.3208 18.384C30.3208 17.287 29.4329 16.3953 28.332 16.3953ZM28.332 19.2955C27.8309 19.2955 27.4205 18.8891 27.4205 18.388C27.4205 17.8868 27.8269 17.4804 28.332 17.4804C28.8371 17.4804 29.2396 17.8868 29.2396 18.388C29.2396 18.8891 28.8371 19.2955 28.332 19.2955Z" fill="url(#paint7_linear_54_223)"/>
<path d="M28.332 16.3953C27.235 16.3953 26.3433 17.287 26.3433 18.384C26.3433 19.481 27.235 20.3728 28.332 20.3728C29.429 20.3728 30.3208 19.481 30.3208 18.384C30.3208 17.287 29.4329 16.3953 28.332 16.3953ZM28.332 19.2955C27.8309 19.2955 27.4205 18.8891 27.4205 18.388C27.4205 17.8868 27.8269 17.4804 28.332 17.4804C28.8371 17.4804 29.2396 17.8868 29.2396 18.388C29.2396 18.8891 28.8371 19.2955 28.332 19.2955Z" fill="url(#paint8_linear_54_223)"/>
<path d="M28.332 57.7646C29.429 57.7646 30.3208 56.8728 30.3208 55.7759C30.3208 54.6789 29.429 53.7871 28.332 53.7871C27.235 53.7871 26.3433 54.6789 26.3433 55.7759C26.3433 56.8768 27.235 57.7646 28.332 57.7646ZM28.332 54.8683C28.8331 54.8683 29.2396 55.2747 29.2396 55.7798C29.2396 56.2809 28.8331 56.6874 28.332 56.6874C27.8309 56.6874 27.4205 56.2809 27.4205 55.7798C27.4244 55.2747 27.8309 54.8683 28.332 54.8683Z" fill="url(#paint9_linear_54_223)"/>
<path d="M28.332 57.7646C29.429 57.7646 30.3208 56.8728 30.3208 55.7759C30.3208 54.6789 29.429 53.7871 28.332 53.7871C27.235 53.7871 26.3433 54.6789 26.3433 55.7759C26.3433 56.8768 27.235 57.7646 28.332 57.7646ZM28.332 54.8683C28.8331 54.8683 29.2396 55.2747 29.2396 55.7798C29.2396 56.2809 28.8331 56.6874 28.332 56.6874C27.8309 56.6874 27.4205 56.2809 27.4205 55.7798C27.4244 55.2747 27.8309 54.8683 28.332 54.8683Z" fill="url(#paint10_linear_54_223)"/>
<path d="M35.3556 43.6697H32.625V46.4003H35.3556V43.6697Z" fill="url(#paint11_linear_54_223)"/>
<path d="M35.3556 43.6697H32.625V46.4003H35.3556V43.6697Z" fill="url(#paint12_linear_54_223)"/>
<path d="M35.3556 38.2913H32.625V41.0219H35.3556V38.2913Z" fill="url(#paint13_linear_54_223)"/>
<path d="M35.3556 38.2913H32.625V41.0219H35.3556V38.2913Z" fill="url(#paint14_linear_54_223)"/>
<path d="M35.3556 32.9485H32.625V35.6791H35.3556V32.9485Z" fill="url(#paint15_linear_54_223)"/>
<path d="M35.3556 32.9485H32.625V35.6791H35.3556V32.9485Z" fill="url(#paint16_linear_54_223)"/>
<path d="M35.3556 27.6018H32.625V30.3324H35.3556V27.6018Z" fill="url(#paint17_linear_54_223)"/>
<path d="M35.3556 27.6018H32.625V30.3324H35.3556V27.6018Z" fill="url(#paint18_linear_54_223)"/>
<path d="M34.0455 22.3536C34.8307 21.2251 35.2964 19.8598 35.2964 18.384C35.2964 14.5446 32.1712 11.4194 28.3318 11.4194C24.4924 11.4194 21.3672 14.5446 21.3672 18.384V55.7758C21.3672 56.4939 21.4777 57.1923 21.6789 57.8434C22.5668 60.6766 25.2145 62.7403 28.3318 62.7403C31.453 62.7403 34.0968 60.6766 34.9807 57.8434C35.1859 57.1884 35.2924 56.4939 35.2924 55.7758C35.2924 54.2724 34.8071 52.8794 33.9942 51.7391H35.3516V49.0085H32.621V50.3027C31.4372 49.3715 29.9496 48.8112 28.3278 48.8112C26.5482 48.8112 24.9264 49.4859 23.6953 50.5908V23.569C24.9264 24.6699 26.5482 25.3486 28.3278 25.3486C29.9457 25.3486 31.4372 24.7883 32.621 23.857V25.0842H35.3516V22.3536H34.0455V22.3536ZM28.3318 51.1432C30.8848 51.1432 32.9643 53.2227 32.9643 55.7758C32.9643 58.3288 30.8848 60.4083 28.3318 60.4083C25.7787 60.4083 23.6992 58.3288 23.6992 55.7758C23.7032 53.2227 25.7787 51.1432 28.3318 51.1432ZM28.3318 23.0166C25.7787 23.0166 23.6992 20.937 23.6992 18.384C23.6992 15.831 25.7787 13.7515 28.3318 13.7515C30.8848 13.7515 32.9643 15.831 32.9643 18.384C32.9643 20.941 30.8887 23.0166 28.3318 23.0166Z" fill="url(#paint19_linear_54_223)"/>
<path d="M34.0455 22.3536C34.8307 21.2251 35.2964 19.8598 35.2964 18.384C35.2964 14.5446 32.1712 11.4194 28.3318 11.4194C24.4924 11.4194 21.3672 14.5446 21.3672 18.384V55.7758C21.3672 56.4939 21.4777 57.1923 21.6789 57.8434C22.5668 60.6766 25.2145 62.7403 28.3318 62.7403C31.453 62.7403 34.0968 60.6766 34.9807 57.8434C35.1859 57.1884 35.2924 56.4939 35.2924 55.7758C35.2924 54.2724 34.8071 52.8794 33.9942 51.7391H35.3516V49.0085H32.621V50.3027C31.4372 49.3715 29.9496 48.8112 28.3278 48.8112C26.5482 48.8112 24.9264 49.4859 23.6953 50.5908V23.569C24.9264 24.6699 26.5482 25.3486 28.3278 25.3486C29.9457 25.3486 31.4372 24.7883 32.621 23.857V25.0842H35.3516V22.3536H34.0455V22.3536ZM28.3318 51.1432C30.8848 51.1432 32.9643 53.2227 32.9643 55.7758C32.9643 58.3288 30.8848 60.4083 28.3318 60.4083C25.7787 60.4083 23.6992 58.3288 23.6992 55.7758C23.7032 53.2227 25.7787 51.1432 28.3318 51.1432ZM28.3318 23.0166C25.7787 23.0166 23.6992 20.937 23.6992 18.384C23.6992 15.831 25.7787 13.7515 28.3318 13.7515C30.8848 13.7515 32.9643 15.831 32.9643 18.384C32.9643 20.941 30.8887 23.0166 28.3318 23.0166Z" fill="url(#paint20_linear_54_223)"/>
</g>
<defs>
<linearGradient id="paint0_linear_54_223" x1="26.3449" y1="18.3854" x2="30.3229" y2="18.3854" gradientUnits="userSpaceOnUse">
<stop stop-color="#FFBE00"/>
<stop offset="0.3674" stop-color="#FF7B00"/>
<stop offset="0.496" stop-color="#FF7A03"/>
<stop offset="0.5812" stop-color="#FF780C"/>
<stop offset="0.6538" stop-color="#FF731B"/>
<stop offset="0.7193" stop-color="#FF6D30"/>
<stop offset="0.7802" stop-color="#FF664B"/>
<stop offset="0.8375" stop-color="#FF5C6D"/>
<stop offset="0.8921" stop-color="#FF5196"/>
<stop offset="0.9445" stop-color="#FF44C4"/>
<stop offset="0.9935" stop-color="#FF35F8"/>
<stop offset="1" stop-color="#FF33FF"/>
</linearGradient>
<linearGradient id="paint1_linear_54_223" x1="26.3449" y1="55.7772" x2="30.3229" y2="55.7772" gradientUnits="userSpaceOnUse">
<stop stop-color="#FFBE00"/>
<stop offset="0.3674" stop-color="#FF7B00"/>
<stop offset="0.496" stop-color="#FF7A03"/>
<stop offset="0.5812" stop-color="#FF780C"/>
<stop offset="0.6538" stop-color="#FF731B"/>
<stop offset="0.7193" stop-color="#FF6D30"/>
<stop offset="0.7802" stop-color="#FF664B"/>
<stop offset="0.8375" stop-color="#FF5C6D"/>
<stop offset="0.8921" stop-color="#FF5196"/>
<stop offset="0.9445" stop-color="#FF44C4"/>
<stop offset="0.9935" stop-color="#FF35F8"/>
<stop offset="1" stop-color="#FF33FF"/>
</linearGradient>
<linearGradient id="paint2_linear_54_223" x1="32.6257" y1="45.0345" x2="35.3559" y2="45.0345" gradientUnits="userSpaceOnUse">
<stop stop-color="#FFBE00"/>
<stop offset="0.3674" stop-color="#FF7B00"/>
<stop offset="0.496" stop-color="#FF7A03"/>
<stop offset="0.5812" stop-color="#FF780C"/>
<stop offset="0.6538" stop-color="#FF731B"/>
<stop offset="0.7193" stop-color="#FF6D30"/>
<stop offset="0.7802" stop-color="#FF664B"/>
<stop offset="0.8375" stop-color="#FF5C6D"/>
<stop offset="0.8921" stop-color="#FF5196"/>
<stop offset="0.9445" stop-color="#FF44C4"/>
<stop offset="0.9935" stop-color="#FF35F8"/>
<stop offset="1" stop-color="#FF33FF"/>
</linearGradient>
<linearGradient id="paint3_linear_54_223" x1="32.6257" y1="39.657" x2="35.3559" y2="39.657" gradientUnits="userSpaceOnUse">
<stop stop-color="#FFBE00"/>
<stop offset="0.3674" stop-color="#FF7B00"/>
<stop offset="0.496" stop-color="#FF7A03"/>
<stop offset="0.5812" stop-color="#FF780C"/>
<stop offset="0.6538" stop-color="#FF731B"/>
<stop offset="0.7193" stop-color="#FF6D30"/>
<stop offset="0.7802" stop-color="#FF664B"/>
<stop offset="0.8375" stop-color="#FF5C6D"/>
<stop offset="0.8921" stop-color="#FF5196"/>
<stop offset="0.9445" stop-color="#FF44C4"/>
<stop offset="0.9935" stop-color="#FF35F8"/>
<stop offset="1" stop-color="#FF33FF"/>
</linearGradient>
<linearGradient id="paint4_linear_54_223" x1="32.6257" y1="34.3154" x2="35.3559" y2="34.3154" gradientUnits="userSpaceOnUse">
<stop stop-color="#FFBE00"/>
<stop offset="0.3674" stop-color="#FF7B00"/>
<stop offset="0.496" stop-color="#FF7A03"/>
<stop offset="0.5812" stop-color="#FF780C"/>
<stop offset="0.6538" stop-color="#FF731B"/>
<stop offset="0.7193" stop-color="#FF6D30"/>
<stop offset="0.7802" stop-color="#FF664B"/>
<stop offset="0.8375" stop-color="#FF5C6D"/>
<stop offset="0.8921" stop-color="#FF5196"/>
<stop offset="0.9445" stop-color="#FF44C4"/>
<stop offset="0.9935" stop-color="#FF35F8"/>
<stop offset="1" stop-color="#FF33FF"/>
</linearGradient>
<linearGradient id="paint5_linear_54_223" x1="32.6257" y1="28.9682" x2="35.3559" y2="28.9682" gradientUnits="userSpaceOnUse">
<stop stop-color="#FFBE00"/>
<stop offset="0.3674" stop-color="#FF7B00"/>
<stop offset="0.496" stop-color="#FF7A03"/>
<stop offset="0.5812" stop-color="#FF780C"/>
<stop offset="0.6538" stop-color="#FF731B"/>
<stop offset="0.7193" stop-color="#FF6D30"/>
<stop offset="0.7802" stop-color="#FF664B"/>
<stop offset="0.8375" stop-color="#FF5C6D"/>
<stop offset="0.8921" stop-color="#FF5196"/>
<stop offset="0.9445" stop-color="#FF44C4"/>
<stop offset="0.9935" stop-color="#FF35F8"/>
<stop offset="1" stop-color="#FF33FF"/>
</linearGradient>
<linearGradient id="paint6_linear_54_223" x1="21.3703" y1="37.0812" x2="35.3559" y2="37.0812" gradientUnits="userSpaceOnUse">
<stop stop-color="#FFBE00"/>
<stop offset="0.3674" stop-color="#FF7B00"/>
<stop offset="0.496" stop-color="#FF7A03"/>
<stop offset="0.5812" stop-color="#FF780C"/>
<stop offset="0.6538" stop-color="#FF731B"/>
<stop offset="0.7193" stop-color="#FF6D30"/>
<stop offset="0.7802" stop-color="#FF664B"/>
<stop offset="0.8375" stop-color="#FF5C6D"/>
<stop offset="0.8921" stop-color="#FF5196"/>
<stop offset="0.9445" stop-color="#FF44C4"/>
<stop offset="0.9935" stop-color="#FF35F8"/>
<stop offset="1" stop-color="#FF33FF"/>
</linearGradient>
<linearGradient id="paint7_linear_54_223" x1="26.3444" y1="18.3833" x2="30.3213" y2="18.3833" gradientUnits="userSpaceOnUse">
<stop stop-color="#FFBE00"/>
<stop offset="0.3674" stop-color="#FF7B00"/>
<stop offset="0.496" stop-color="#FF7A03"/>
<stop offset="0.5812" stop-color="#FF780C"/>
<stop offset="0.6538" stop-color="#FF731B"/>
<stop offset="0.7193" stop-color="#FF6D30"/>
<stop offset="0.7802" stop-color="#FF664B"/>
<stop offset="0.8375" stop-color="#FF5C6D"/>
<stop offset="0.8921" stop-color="#FF5196"/>
<stop offset="0.9445" stop-color="#FF44C4"/>
<stop offset="0.9935" stop-color="#FF35F8"/>
<stop offset="1" stop-color="#FF33FF"/>
</linearGradient>
<linearGradient id="paint8_linear_54_223" x1="25.5407" y1="16.3953" x2="30.4831" y2="16.6383" gradientUnits="userSpaceOnUse">
<stop offset="0.120248" stop-color="#FDF1D5"/>
<stop offset="0.465654" stop-color="#EE6B68"/>
<stop offset="1" stop-color="#FF33FF" stop-opacity="0"/>
</linearGradient>
<linearGradient id="paint9_linear_54_223" x1="26.3444" y1="55.7751" x2="30.3213" y2="55.7751" gradientUnits="userSpaceOnUse">
<stop stop-color="#FFBE00"/>
<stop offset="0.3674" stop-color="#FF7B00"/>
<stop offset="0.496" stop-color="#FF7A03"/>
<stop offset="0.5812" stop-color="#FF780C"/>
<stop offset="0.6538" stop-color="#FF731B"/>
<stop offset="0.7193" stop-color="#FF6D30"/>
<stop offset="0.7802" stop-color="#FF664B"/>
<stop offset="0.8375" stop-color="#FF5C6D"/>
<stop offset="0.8921" stop-color="#FF5196"/>
<stop offset="0.9445" stop-color="#FF44C4"/>
<stop offset="0.9935" stop-color="#FF35F8"/>
<stop offset="1" stop-color="#FF33FF"/>
</linearGradient>
<linearGradient id="paint10_linear_54_223" x1="25.5407" y1="53.7871" x2="30.4831" y2="54.0302" gradientUnits="userSpaceOnUse">
<stop offset="0.120248" stop-color="#FDF1D5"/>
<stop offset="0.465654" stop-color="#EE6B68"/>
<stop offset="1" stop-color="#FF33FF" stop-opacity="0"/>
</linearGradient>
<linearGradient id="paint11_linear_54_223" x1="32.6257" y1="45.0345" x2="35.3559" y2="45.0345" gradientUnits="userSpaceOnUse">
<stop stop-color="#FFBE00"/>
<stop offset="0.3674" stop-color="#FF7B00"/>
<stop offset="0.496" stop-color="#FF7A03"/>
<stop offset="0.5812" stop-color="#FF780C"/>
<stop offset="0.6538" stop-color="#FF731B"/>
<stop offset="0.7193" stop-color="#FF6D30"/>
<stop offset="0.7802" stop-color="#FF664B"/>
<stop offset="0.8375" stop-color="#FF5C6D"/>
<stop offset="0.8921" stop-color="#FF5196"/>
<stop offset="0.9445" stop-color="#FF44C4"/>
<stop offset="0.9935" stop-color="#FF35F8"/>
<stop offset="1" stop-color="#FF33FF"/>
</linearGradient>
<linearGradient id="paint12_linear_54_223" x1="32.074" y1="43.6697" x2="35.4671" y2="43.8365" gradientUnits="userSpaceOnUse">
<stop offset="0.120248" stop-color="#FDF1D5"/>
<stop offset="0.465654" stop-color="#EE6B68"/>
<stop offset="1" stop-color="#FF33FF" stop-opacity="0"/>
</linearGradient>
<linearGradient id="paint13_linear_54_223" x1="32.6257" y1="39.656" x2="35.3559" y2="39.656" gradientUnits="userSpaceOnUse">
<stop stop-color="#FFBE00"/>
<stop offset="0.3674" stop-color="#FF7B00"/>
<stop offset="0.496" stop-color="#FF7A03"/>
<stop offset="0.5812" stop-color="#FF780C"/>
<stop offset="0.6538" stop-color="#FF731B"/>
<stop offset="0.7193" stop-color="#FF6D30"/>
<stop offset="0.7802" stop-color="#FF664B"/>
<stop offset="0.8375" stop-color="#FF5C6D"/>
<stop offset="0.8921" stop-color="#FF5196"/>
<stop offset="0.9445" stop-color="#FF44C4"/>
<stop offset="0.9935" stop-color="#FF35F8"/>
<stop offset="1" stop-color="#FF33FF"/>
</linearGradient>
<linearGradient id="paint14_linear_54_223" x1="32.074" y1="38.2913" x2="35.4671" y2="38.4581" gradientUnits="userSpaceOnUse">
<stop offset="0.120248" stop-color="#FDF1D5"/>
<stop offset="0.465654" stop-color="#EE6B68"/>
<stop offset="1" stop-color="#FF33FF" stop-opacity="0"/>
</linearGradient>
<linearGradient id="paint15_linear_54_223" x1="32.6257" y1="34.3133" x2="35.3559" y2="34.3133" gradientUnits="userSpaceOnUse">
<stop stop-color="#FFBE00"/>
<stop offset="0.3674" stop-color="#FF7B00"/>
<stop offset="0.496" stop-color="#FF7A03"/>
<stop offset="0.5812" stop-color="#FF780C"/>
<stop offset="0.6538" stop-color="#FF731B"/>
<stop offset="0.7193" stop-color="#FF6D30"/>
<stop offset="0.7802" stop-color="#FF664B"/>
<stop offset="0.8375" stop-color="#FF5C6D"/>
<stop offset="0.8921" stop-color="#FF5196"/>
<stop offset="0.9445" stop-color="#FF44C4"/>
<stop offset="0.9935" stop-color="#FF35F8"/>
<stop offset="1" stop-color="#FF33FF"/>
</linearGradient>
<linearGradient id="paint16_linear_54_223" x1="32.074" y1="32.9485" x2="35.4671" y2="33.1153" gradientUnits="userSpaceOnUse">
<stop offset="0.120248" stop-color="#FDF1D5"/>
<stop offset="0.465654" stop-color="#EE6B68"/>
<stop offset="1" stop-color="#FF33FF" stop-opacity="0"/>
</linearGradient>
<linearGradient id="paint17_linear_54_223" x1="32.6257" y1="28.9666" x2="35.3559" y2="28.9666" gradientUnits="userSpaceOnUse">
<stop stop-color="#FFBE00"/>
<stop offset="0.3674" stop-color="#FF7B00"/>
<stop offset="0.496" stop-color="#FF7A03"/>
<stop offset="0.5812" stop-color="#FF780C"/>
<stop offset="0.6538" stop-color="#FF731B"/>
<stop offset="0.7193" stop-color="#FF6D30"/>
<stop offset="0.7802" stop-color="#FF664B"/>
<stop offset="0.8375" stop-color="#FF5C6D"/>
<stop offset="0.8921" stop-color="#FF5196"/>
<stop offset="0.9445" stop-color="#FF44C4"/>
<stop offset="0.9935" stop-color="#FF35F8"/>
<stop offset="1" stop-color="#FF33FF"/>
</linearGradient>
<linearGradient id="paint18_linear_54_223" x1="32.074" y1="27.6018" x2="35.4671" y2="27.7687" gradientUnits="userSpaceOnUse">
<stop offset="0.120248" stop-color="#FDF1D5"/>
<stop offset="0.465654" stop-color="#EE6B68"/>
<stop offset="1" stop-color="#FF33FF" stop-opacity="0"/>
</linearGradient>
<linearGradient id="paint19_linear_54_223" x1="21.371" y1="37.0702" x2="35.3534" y2="37.0702" gradientUnits="userSpaceOnUse">
<stop stop-color="#FFBE00"/>
<stop offset="0.3674" stop-color="#FF7B00"/>
<stop offset="0.496" stop-color="#FF7A03"/>
<stop offset="0.5812" stop-color="#FF780C"/>
<stop offset="0.6538" stop-color="#FF731B"/>
<stop offset="0.7193" stop-color="#FF6D30"/>
<stop offset="0.7802" stop-color="#FF664B"/>
<stop offset="0.8375" stop-color="#FF5C6D"/>
<stop offset="0.8921" stop-color="#FF5196"/>
<stop offset="0.9445" stop-color="#FF44C4"/>
<stop offset="0.9935" stop-color="#FF35F8"/>
<stop offset="1" stop-color="#FF33FF"/>
</linearGradient>
<linearGradient id="paint20_linear_54_223" x1="18.5453" y1="11.4194" x2="35.9614" y2="11.6528" gradientUnits="userSpaceOnUse">
<stop offset="0.120248" stop-color="#FDF1D5"/>
<stop offset="0.465654" stop-color="#EE6B68"/>
<stop offset="1" stop-color="#FF33FF" stop-opacity="0"/>
</linearGradient>
<clipPath id="clip0_54_223">
<rect width="55.0419" height="80" fill="white"/>
</clipPath>
</defs>
</svg>
