<svg width="1332" height="2006" viewBox="0 0 1332 2006" fill="none" xmlns="http://www.w3.org/2000/svg">
<path d="M90.0005 1H1248.8L1331 73.5141V126.691C1327.68 130.701 1319.54 137.955 1319.54 141.035C1319.54 144.115 1319.54 231.184 1319.54 274.333V421.302C1319.54 422.372 1320.08 423.397 1320.94 424.039C1323.3 425.81 1327.9 429.411 1329.99 431.22C1330.67 431.81 1331 432.664 1331 433.565V1547" stroke="#6C5478" stroke-width="2"/>
<path d="M1242 1H83.2024L1.00046 73.7487V127.098C4.32175 131.121 12.4589 138.398 12.4589 141.488C12.4589 144.578 12.4589 231.928 12.4589 275.217V422.67C12.4589 423.738 11.9178 424.762 11.0644 425.404C8.70516 427.182 4.0916 430.801 2.00646 432.615C1.32812 433.205 1.00046 434.057 1.00046 434.956V1552" stroke="#6C5478" stroke-width="2"/>
<path d="M1242 2005L83.2022 2005L1.00032 1931.69L1.00033 1877.93C4.32162 1873.87 12.4588 1866.54 12.4588 1863.42C12.4588 1860.31 12.4588 1772.28 12.4588 1728.66L12.4588 1580.05C12.4588 1578.98 11.9214 1577.96 11.0731 1577.32C8.71294 1575.53 4.0798 1571.86 1.9967 1570.04C1.32467 1569.45 1.00035 1568.6 1.00035 1567.7L1.00045 441.999" stroke="#6C5478" stroke-width="2"/>
<path d="M90 2005L1248.8 2005L1331 1932.49L1331 1879.31C1327.68 1875.3 1319.54 1868.04 1319.54 1864.96C1319.54 1861.89 1319.54 1774.82 1319.54 1731.67L1319.54 1584.7C1319.54 1583.63 1320.08 1582.6 1320.94 1581.96C1323.3 1580.19 1327.9 1576.59 1329.99 1574.78C1330.67 1574.19 1331 1573.34 1331 1572.43L1331 459" stroke="#6C5478" stroke-width="2"/>
</svg>
