<svg width="77" height="77" viewBox="0 0 77 77" fill="none" xmlns="http://www.w3.org/2000/svg">
<circle cx="38.5" cy="38.5" r="37.5" stroke="#FF33FF" stroke-width="2"/>
<circle cx="38.5" cy="38.5" r="37.5" stroke="url(#paint0_linear_54_2)" stroke-width="2"/>
<path d="M30.7914 34.0027H24.5967V54.0001H30.7914V34.0027Z" fill="#FFE9D2"/>
<path d="M27.6587 31.3803C29.6844 31.3803 31.3175 29.7236 31.3175 27.6901C31.3175 25.6566 29.6844 24 27.6587 24C25.6409 24 24 25.6488 24 27.6901C24 29.7315 25.6409 31.3803 27.6587 31.3803Z" fill="#FFE9D2"/>
<path d="M40.6842 43.5027C40.6842 40.6919 41.9797 39.0196 44.4528 39.0196C46.7297 39.0196 47.8211 40.6291 47.8211 43.5027C47.8211 46.3841 47.8211 53.9999 47.8211 53.9999H53.9844C53.9844 53.9999 53.9844 46.6903 53.9844 41.3357C53.9844 35.9811 50.9459 33.3901 46.7062 33.3901C42.4664 33.3901 40.6763 36.6956 40.6763 36.6956V34.0025H34.7407V53.9999H40.6763C40.6842 53.9999 40.6842 46.5804 40.6842 43.5027Z" fill="#FFE9D2"/>
<defs>
<linearGradient id="paint0_linear_54_2" x1="-14.1339" y1="1.00001" x2="109.206" y2="5.40873" gradientUnits="userSpaceOnUse">
<stop offset="0.120248" stop-color="#FDF1D5"/>
<stop offset="0.465654" stop-color="#EE6B68"/>
<stop offset="1" stop-color="#FF33FF" stop-opacity="0"/>
</linearGradient>
</defs>
</svg>
