<svg width="80" height="80" viewBox="0 0 80 80" fill="none" xmlns="http://www.w3.org/2000/svg">
<path d="M60.2843 73.2201C59.982 72.6923 59.3103 72.5148 58.7873 72.8123C53.0966 76.075 46.5999 77.8024 40.0024 77.8024C19.1591 77.8024 2.19756 60.8456 2.19756 39.9976C2.19756 29.9598 6.07449 20.5554 13.1182 13.4301V19.5237C13.1182 20.1283 13.6076 20.6225 14.217 20.6225C14.8264 20.6225 15.3158 20.1331 15.3158 19.5237V11.1173C15.3158 10.5128 14.8264 10.0186 14.217 10.0186H5.22521C4.62064 10.0186 4.12643 10.508 4.12643 11.1173C4.12643 11.7267 4.61585 12.2161 5.22521 12.2161H11.2421C3.99208 19.7109 0 29.5327 0 39.9976C0 62.0548 17.9452 79.9952 39.9976 79.9952C46.9789 79.9952 53.8547 78.1671 59.8764 74.7124C60.4042 74.4149 60.5866 73.7431 60.2843 73.2201Z" fill="url(#paint0_linear_54_222)"/>
<path d="M73.3641 68.3021H68.2636C75.7488 60.8217 79.9999 50.6256 79.9999 39.9976C79.9999 17.9452 62.0548 0 39.9975 0C32.57 0 25.3151 2.05362 19.0247 5.93055C18.5065 6.24723 18.3482 6.92377 18.6648 7.44197C18.9815 7.95538 19.6581 8.11852 20.1763 7.80184C26.126 4.13123 32.9778 2.19277 39.9975 2.19277C60.8408 2.19277 77.8024 19.1495 77.8024 39.9976C77.8024 50.2129 73.6376 60.0012 66.3395 67.0977V60.409C66.3395 59.8045 65.8501 59.3103 65.2407 59.3103C64.6314 59.3103 64.142 59.7997 64.142 60.409V69.396C64.142 70.0006 64.6314 70.4948 65.2407 70.4948H73.3593C73.9638 70.4948 74.458 70.0054 74.458 69.396C74.4628 68.7915 73.9686 68.3021 73.3641 68.3021Z" fill="url(#paint1_linear_54_222)"/>
<path d="M61.834 40.8468C61.834 44.2008 61.8052 47.5547 61.8484 50.9086C61.8724 52.4824 61.2582 53.49 59.8284 54.2098C54.2337 57.0119 48.7062 59.9532 43.0779 62.6785C42.1615 63.1248 40.6452 63.1344 39.7384 62.6785C33.1313 59.363 26.6202 55.8555 20.0563 52.4584C18.7895 51.8011 18.1466 50.9134 18.1514 49.4788C18.1706 42.6462 18.1658 35.8087 18.1562 28.9761C18.1562 27.5511 18.7895 26.6634 20.0803 26.0157C25.6701 23.2087 31.2408 20.3586 36.7875 17.4653C38.1118 16.7744 39.2442 16.8512 40.5397 17.5373C46.9548 20.9488 53.394 24.3267 59.8523 27.6566C61.2726 28.3908 61.8724 29.4032 61.8484 30.9722C61.7956 34.2637 61.8292 37.5553 61.834 40.8468ZM22.5369 31.9606C22.5369 37.5697 22.5033 42.7325 22.5897 47.8954C22.5993 48.3992 23.2279 49.0805 23.7461 49.354C28.4675 51.897 33.2225 54.3681 37.9775 56.8488C38.2845 57.0071 38.6444 57.0647 39.2154 57.2422C39.2154 51.8251 39.2298 46.6046 39.1866 41.3842C39.1818 41.0388 38.8219 40.5541 38.5005 40.3766C33.328 37.6225 28.1412 34.9115 22.5369 31.9606ZM43.6057 57.0455C43.956 57.1127 44.1047 57.1942 44.1911 57.151C48.3559 55.0494 52.5207 52.9574 56.6616 50.8031C57.0214 50.6159 57.4005 50.0449 57.4053 49.6467C57.4533 44.4791 57.4389 39.3066 57.4389 33.6592L43.7881 40.5925L43.6057 57.0455ZM25.1903 28.3716C30.641 31.2409 35.6887 33.9279 40.7844 36.5141C41.2594 36.754 42.1327 36.4997 42.6941 36.2214C45.9184 34.6332 49.1044 32.973 52.3 31.3273C53.0341 30.9482 53.7443 30.5212 54.7135 29.9742C49.3635 27.1576 44.3638 24.4899 39.3114 21.918C38.8363 21.6733 37.9727 21.8892 37.4161 22.1531C35.1945 23.2087 33.0257 24.3651 30.8378 25.4831C29.0672 26.3947 27.2967 27.2968 25.1903 28.3716Z" fill="#E755D3"/>
<path d="M61.834 40.8468C61.834 44.2008 61.8052 47.5547 61.8484 50.9086C61.8724 52.4824 61.2582 53.49 59.8284 54.2098C54.2337 57.0119 48.7062 59.9532 43.0779 62.6785C42.1615 63.1248 40.6452 63.1344 39.7384 62.6785C33.1313 59.363 26.6202 55.8555 20.0563 52.4584C18.7895 51.8011 18.1466 50.9134 18.1514 49.4788C18.1706 42.6462 18.1658 35.8087 18.1562 28.9761C18.1562 27.5511 18.7895 26.6634 20.0803 26.0157C25.6701 23.2087 31.2408 20.3586 36.7875 17.4653C38.1118 16.7744 39.2442 16.8512 40.5397 17.5373C46.9548 20.9488 53.394 24.3267 59.8523 27.6566C61.2726 28.3908 61.8724 29.4032 61.8484 30.9722C61.7956 34.2637 61.8292 37.5553 61.834 40.8468ZM22.5369 31.9606C22.5369 37.5697 22.5033 42.7325 22.5897 47.8954C22.5993 48.3992 23.2279 49.0805 23.7461 49.354C28.4675 51.897 33.2225 54.3681 37.9775 56.8488C38.2845 57.0071 38.6444 57.0647 39.2154 57.2422C39.2154 51.8251 39.2298 46.6046 39.1866 41.3842C39.1818 41.0388 38.8219 40.5541 38.5005 40.3766C33.328 37.6225 28.1412 34.9115 22.5369 31.9606ZM43.6057 57.0455C43.956 57.1127 44.1047 57.1942 44.1911 57.151C48.3559 55.0494 52.5207 52.9574 56.6616 50.8031C57.0214 50.6159 57.4005 50.0449 57.4053 49.6467C57.4533 44.4791 57.4389 39.3066 57.4389 33.6592L43.7881 40.5925L43.6057 57.0455ZM25.1903 28.3716C30.641 31.2409 35.6887 33.9279 40.7844 36.5141C41.2594 36.754 42.1327 36.4997 42.6941 36.2214C45.9184 34.6332 49.1044 32.973 52.3 31.3273C53.0341 30.9482 53.7443 30.5212 54.7135 29.9742C49.3635 27.1576 44.3638 24.4899 39.3114 21.918C38.8363 21.6733 37.9727 21.8892 37.4161 22.1531C35.1945 23.2087 33.0257 24.3651 30.8378 25.4831C29.0672 26.3947 27.2967 27.2968 25.1903 28.3716Z" fill="url(#paint2_linear_54_222)"/>
<path d="M60.2843 73.2201C59.982 72.6923 59.3103 72.5148 58.7873 72.8123C53.0966 76.075 46.5999 77.8024 40.0024 77.8024C19.1591 77.8024 2.19756 60.8456 2.19756 39.9976C2.19756 29.9598 6.07449 20.5554 13.1182 13.4301V19.5237C13.1182 20.1283 13.6076 20.6225 14.217 20.6225C14.8264 20.6225 15.3158 20.1331 15.3158 19.5237V11.1173C15.3158 10.5128 14.8264 10.0186 14.217 10.0186H5.22521C4.62064 10.0186 4.12643 10.508 4.12643 11.1173C4.12643 11.7267 4.61585 12.2161 5.22521 12.2161H11.2421C3.99208 19.7109 0 29.5327 0 39.9976C0 62.0548 17.9452 79.9952 39.9976 79.9952C46.9789 79.9952 53.8547 78.1671 59.8764 74.7124C60.4042 74.4149 60.5866 73.7431 60.2843 73.2201Z" fill="url(#paint3_linear_54_222)"/>
<path d="M73.3641 68.3021H68.2636C75.7488 60.8217 79.9999 50.6256 79.9999 39.9976C79.9999 17.9452 62.0548 0 39.9975 0C32.57 0 25.3151 2.05362 19.0247 5.93055C18.5065 6.24723 18.3482 6.92377 18.6648 7.44197C18.9815 7.95538 19.6581 8.11852 20.1763 7.80184C26.126 4.13123 32.9778 2.19277 39.9975 2.19277C60.8408 2.19277 77.8024 19.1495 77.8024 39.9976C77.8024 50.2129 73.6376 60.0012 66.3395 67.0977V60.409C66.3395 59.8045 65.8501 59.3103 65.2407 59.3103C64.6314 59.3103 64.142 59.7997 64.142 60.409V69.396C64.142 70.0006 64.6314 70.4948 65.2407 70.4948H73.3593C73.9638 70.4948 74.458 70.0054 74.458 69.396C74.4628 68.7915 73.9686 68.3021 73.3641 68.3021Z" fill="url(#paint4_linear_54_222)"/>
<path d="M60.2843 73.2201C59.982 72.6923 59.3103 72.5148 58.7873 72.8123C53.0966 76.075 46.5999 77.8024 40.0024 77.8024C19.1591 77.8024 2.19756 60.8456 2.19756 39.9976C2.19756 29.9598 6.07449 20.5554 13.1182 13.4301V19.5237C13.1182 20.1283 13.6076 20.6225 14.217 20.6225C14.8264 20.6225 15.3158 20.1331 15.3158 19.5237V11.1173C15.3158 10.5128 14.8264 10.0186 14.217 10.0186H5.22521C4.62064 10.0186 4.12643 10.508 4.12643 11.1173C4.12643 11.7267 4.61585 12.2161 5.22521 12.2161H11.2421C3.99208 19.7109 0 29.5327 0 39.9976C0 62.0548 17.9452 79.9952 39.9976 79.9952C46.9789 79.9952 53.8547 78.1671 59.8764 74.7124C60.4042 74.4149 60.5866 73.7431 60.2843 73.2201Z" fill="#FDF1D5"/>
<path d="M73.3641 68.3021H68.2636C75.7488 60.8217 79.9999 50.6256 79.9999 39.9976C79.9999 17.9452 62.0548 0 39.9975 0C32.57 0 25.3151 2.05362 19.0247 5.93055C18.5065 6.24723 18.3482 6.92377 18.6648 7.44197C18.9815 7.95538 19.6581 8.11852 20.1763 7.80184C26.126 4.13123 32.9778 2.19277 39.9975 2.19277C60.8408 2.19277 77.8024 19.1495 77.8024 39.9976C77.8024 50.2129 73.6376 60.0012 66.3395 67.0977V60.409C66.3395 59.8045 65.8501 59.3103 65.2407 59.3103C64.6314 59.3103 64.142 59.7997 64.142 60.409V69.396C64.142 70.0006 64.6314 70.4948 65.2407 70.4948H73.3593C73.9638 70.4948 74.458 70.0054 74.458 69.396C74.4628 68.7915 73.9686 68.3021 73.3641 68.3021Z" fill="#FDF1D5"/>
<defs>
<linearGradient id="paint0_linear_54_222" x1="0" y1="45.0104" x2="60.4297" y2="45.0104" gradientUnits="userSpaceOnUse">
<stop stop-color="#FFBE00"/>
<stop offset="0.3674" stop-color="#FF7B00"/>
<stop offset="0.496" stop-color="#FF7A03"/>
<stop offset="0.5812" stop-color="#FF780C"/>
<stop offset="0.6538" stop-color="#FF731B"/>
<stop offset="0.7193" stop-color="#FF6D30"/>
<stop offset="0.7802" stop-color="#FF664B"/>
<stop offset="0.8375" stop-color="#FF5C6D"/>
<stop offset="0.8921" stop-color="#FF5196"/>
<stop offset="0.9445" stop-color="#FF44C4"/>
<stop offset="0.9935" stop-color="#FF35F8"/>
<stop offset="1" stop-color="#FF33FF"/>
</linearGradient>
<linearGradient id="paint1_linear_54_222" x1="18.5059" y1="35.2487" x2="79.999" y2="35.2487" gradientUnits="userSpaceOnUse">
<stop stop-color="#FFBE00"/>
<stop offset="0.3674" stop-color="#FF7B00"/>
<stop offset="0.496" stop-color="#FF7A03"/>
<stop offset="0.5812" stop-color="#FF780C"/>
<stop offset="0.6538" stop-color="#FF731B"/>
<stop offset="0.7193" stop-color="#FF6D30"/>
<stop offset="0.7802" stop-color="#FF664B"/>
<stop offset="0.8375" stop-color="#FF5C6D"/>
<stop offset="0.8921" stop-color="#FF5196"/>
<stop offset="0.9445" stop-color="#FF44C4"/>
<stop offset="0.9935" stop-color="#FF35F8"/>
<stop offset="1" stop-color="#FF33FF"/>
</linearGradient>
<linearGradient id="paint2_linear_54_222" x1="9.33379" y1="16.9834" x2="63.646" y2="19.5187" gradientUnits="userSpaceOnUse">
<stop offset="0.120248" stop-color="#FDF1D5"/>
<stop offset="0.465654" stop-color="#EE6B68"/>
<stop offset="1" stop-color="#FF33FF" stop-opacity="0"/>
</linearGradient>
<linearGradient id="paint3_linear_54_222" x1="0" y1="45.0104" x2="60.4297" y2="45.0104" gradientUnits="userSpaceOnUse">
<stop stop-color="#FFBE00"/>
<stop offset="0.3674" stop-color="#FF7B00"/>
<stop offset="0.496" stop-color="#FF7A03"/>
<stop offset="0.5812" stop-color="#FF780C"/>
<stop offset="0.6538" stop-color="#FF731B"/>
<stop offset="0.7193" stop-color="#FF6D30"/>
<stop offset="0.7802" stop-color="#FF664B"/>
<stop offset="0.8375" stop-color="#FF5C6D"/>
<stop offset="0.8921" stop-color="#FF5196"/>
<stop offset="0.9445" stop-color="#FF44C4"/>
<stop offset="0.9935" stop-color="#FF35F8"/>
<stop offset="1" stop-color="#FF33FF"/>
</linearGradient>
<linearGradient id="paint4_linear_54_222" x1="18.5059" y1="35.2487" x2="79.999" y2="35.2487" gradientUnits="userSpaceOnUse">
<stop stop-color="#FFBE00"/>
<stop offset="0.3674" stop-color="#FF7B00"/>
<stop offset="0.496" stop-color="#FF7A03"/>
<stop offset="0.5812" stop-color="#FF780C"/>
<stop offset="0.6538" stop-color="#FF731B"/>
<stop offset="0.7193" stop-color="#FF6D30"/>
<stop offset="0.7802" stop-color="#FF664B"/>
<stop offset="0.8375" stop-color="#FF5C6D"/>
<stop offset="0.8921" stop-color="#FF5196"/>
<stop offset="0.9445" stop-color="#FF44C4"/>
<stop offset="0.9935" stop-color="#FF35F8"/>
<stop offset="1" stop-color="#FF33FF"/>
</linearGradient>
</defs>
</svg>
