<svg width="77" height="77" viewBox="0 0 77 77" fill="none" xmlns="http://www.w3.org/2000/svg">
<circle cx="38.5" cy="38.5" r="37.5" stroke="#FF33FF" stroke-width="2"/>
<circle cx="38.5" cy="38.5" r="37.5" stroke="url(#paint0_linear_54_46)" stroke-width="2"/>
<g clip-path="url(#clip0_54_46)">
<path d="M20 50.5909C23.3545 52.7455 27.3273 54 31.6091 54C45.6727 54 53.6091 42.1273 53.1364 31.4727C54.6182 30.4091 55.9 29.0727 56.9182 27.5545C55.5636 28.1545 54.1 28.5636 52.5727 28.7455C54.1364 27.8091 55.3364 26.3273 55.9 24.5545C54.4364 25.4182 52.8182 26.0545 51.0909 26.3909C49.7 24.9182 47.7364 24 45.5545 24C40.6636 24 37.0727 28.5636 38.1818 33.3C31.8818 32.9818 26.3 29.9636 22.5727 25.3818C20.5818 28.7909 21.5455 33.2455 24.9182 35.5C23.6727 35.4636 22.5091 35.1182 21.4909 34.5545C21.4091 38.0636 23.9273 41.3455 27.5636 42.0727C26.5 42.3636 25.3273 42.4273 24.1455 42.2C25.1091 45.2091 27.9 47.4 31.2182 47.4636C28.0273 49.9545 24.0182 51.0636 20 50.5909Z" fill="#FFE9D2"/>
</g>
<defs>
<linearGradient id="paint0_linear_54_46" x1="-14.1339" y1="1.00001" x2="109.206" y2="5.40873" gradientUnits="userSpaceOnUse">
<stop offset="0.120248" stop-color="#FDF1D5"/>
<stop offset="0.465654" stop-color="#EE6B68"/>
<stop offset="1" stop-color="#FF33FF" stop-opacity="0"/>
</linearGradient>
<clipPath id="clip0_54_46">
<rect width="36.9091" height="30" fill="white" transform="translate(20 24)"/>
</clipPath>
</defs>
</svg>
