<svg width="77" height="77" viewBox="0 0 77 77" fill="none" xmlns="http://www.w3.org/2000/svg">
<circle cx="38.5" cy="38.5" r="37.5" stroke="#FF33FF" stroke-width="2"/>
<circle cx="38.5" cy="38.5" r="37.5" stroke="url(#paint0_linear_54_29)" stroke-width="2"/>
<g clip-path="url(#clip0_54_29)">
<path d="M58.1639 28.398C57.704 26.6672 56.3495 25.3043 54.6271 24.8361C51.5084 24 39 24 39 24C39 24 26.4916 24 23.3729 24.8445C21.6505 25.3043 20.296 26.6672 19.8361 28.398C19 31.5418 19 38.0886 19 38.0886C19 38.0886 19 44.6355 19.8361 47.7793C20.296 49.51 21.6505 50.8729 23.3729 51.3411C26.4916 52.1856 39 52.1856 39 52.1856C39 52.1856 51.5084 52.1856 54.6271 51.3411C56.3495 50.8813 57.704 49.51 58.1639 47.7793C59 44.6438 59 38.0886 59 38.0886C59 38.0886 59 31.5418 58.1639 28.398ZM34.9114 44.0334V32.1438L45.3629 38.0886L34.9114 44.0334Z" fill="#FFE9D2"/>
</g>
<defs>
<linearGradient id="paint0_linear_54_29" x1="-14.1339" y1="1.00001" x2="109.206" y2="5.40873" gradientUnits="userSpaceOnUse">
<stop offset="0.120248" stop-color="#FDF1D5"/>
<stop offset="0.465654" stop-color="#EE6B68"/>
<stop offset="1" stop-color="#FF33FF" stop-opacity="0"/>
</linearGradient>
<clipPath id="clip0_54_29">
<rect width="40" height="28.1773" fill="white" transform="translate(19 24)"/>
</clipPath>
</defs>
</svg>
